<mxfile host="app.diagrams.net" agent="Mozilla/5.0 (Windows NT 10.0; Win64; x64) AppleWebKit/537.36 (KHTML, like Gecko) Chrome/131.0.0.0 Safari/537.36" version="25.0.1">
  <diagram name="1 oldal" id="B-mgCKRO9jSdGpcQhPqs">
    <mxGraphModel dx="1844" dy="2116" grid="0" gridSize="10" guides="1" tooltips="1" connect="1" arrows="1" fold="1" page="0" pageScale="1" pageWidth="827" pageHeight="1169" math="0" shadow="0">
      <root>
        <mxCell id="0" />
        <mxCell id="1" parent="0" />
        <mxCell id="m1yt-KQb_Gt9kjzcw-hV-1" value="Home" style="rounded=1;whiteSpace=wrap;html=1;fontSize=22;" parent="1" vertex="1">
          <mxGeometry x="-256" y="99" width="120" height="60" as="geometry" />
        </mxCell>
        <mxCell id="m1yt-KQb_Gt9kjzcw-hV-3" value="belépés" style="rounded=1;whiteSpace=wrap;html=1;fontSize=22;" parent="1" vertex="1">
          <mxGeometry x="-9" y="132" width="120" height="60" as="geometry" />
        </mxCell>
        <mxCell id="m1yt-KQb_Gt9kjzcw-hV-4" value="szülői" style="rounded=1;whiteSpace=wrap;html=1;fontSize=22;" parent="1" vertex="1">
          <mxGeometry x="-41" y="-67" width="120" height="60" as="geometry" />
        </mxCell>
        <mxCell id="m1yt-KQb_Gt9kjzcw-hV-5" value="tanári" style="rounded=1;whiteSpace=wrap;html=1;fontSize=22;" parent="1" vertex="1">
          <mxGeometry x="298" y="-58" width="120" height="60" as="geometry" />
        </mxCell>
        <mxCell id="m1yt-KQb_Gt9kjzcw-hV-6" value="tanulói" style="rounded=1;whiteSpace=wrap;html=1;fontSize=22;" parent="1" vertex="1">
          <mxGeometry x="257" y="234" width="120" height="60" as="geometry" />
        </mxCell>
        <mxCell id="m1yt-KQb_Gt9kjzcw-hV-7" value="admin" style="rounded=1;whiteSpace=wrap;html=1;fontSize=22;" parent="1" vertex="1">
          <mxGeometry x="-67" y="244" width="120" height="60" as="geometry" />
        </mxCell>
        <mxCell id="m1yt-KQb_Gt9kjzcw-hV-8" value="" style="endArrow=classic;html=1;rounded=0;fontSize=22;startSize=8;endSize=8;curved=1;entryX=0;entryY=0.5;entryDx=0;entryDy=0;exitX=0.5;exitY=1;exitDx=0;exitDy=0;" parent="1" source="m1yt-KQb_Gt9kjzcw-hV-1" target="m1yt-KQb_Gt9kjzcw-hV-3" edge="1">
          <mxGeometry relative="1" as="geometry">
            <mxPoint x="4" y="48.5" as="sourcePoint" />
            <mxPoint x="78" y="52" as="targetPoint" />
          </mxGeometry>
        </mxCell>
        <mxCell id="m1yt-KQb_Gt9kjzcw-hV-10" value="" style="endArrow=classic;html=1;rounded=0;fontSize=22;startSize=8;endSize=8;curved=1;entryX=0.5;entryY=1;entryDx=0;entryDy=0;" parent="1" target="m1yt-KQb_Gt9kjzcw-hV-4" edge="1">
          <mxGeometry width="50" height="50" relative="1" as="geometry">
            <mxPoint x="54" y="130" as="sourcePoint" />
            <mxPoint x="225" y="175" as="targetPoint" />
          </mxGeometry>
        </mxCell>
        <mxCell id="m1yt-KQb_Gt9kjzcw-hV-11" value="" style="endArrow=classic;html=1;rounded=0;fontSize=22;startSize=8;endSize=8;curved=1;entryX=0;entryY=0.383;entryDx=0;entryDy=0;entryPerimeter=0;exitX=1;exitY=0.5;exitDx=0;exitDy=0;" parent="1" source="m1yt-KQb_Gt9kjzcw-hV-3" target="m1yt-KQb_Gt9kjzcw-hV-5" edge="1">
          <mxGeometry width="50" height="50" relative="1" as="geometry">
            <mxPoint x="185" y="235" as="sourcePoint" />
            <mxPoint x="235" y="185" as="targetPoint" />
          </mxGeometry>
        </mxCell>
        <mxCell id="m1yt-KQb_Gt9kjzcw-hV-12" value="" style="endArrow=classic;html=1;rounded=0;fontSize=22;startSize=8;endSize=8;curved=1;entryX=0;entryY=0.5;entryDx=0;entryDy=0;exitX=1;exitY=0.5;exitDx=0;exitDy=0;" parent="1" source="m1yt-KQb_Gt9kjzcw-hV-3" target="m1yt-KQb_Gt9kjzcw-hV-6" edge="1">
          <mxGeometry width="50" height="50" relative="1" as="geometry">
            <mxPoint x="196" y="123" as="sourcePoint" />
            <mxPoint x="246" y="73" as="targetPoint" />
          </mxGeometry>
        </mxCell>
        <mxCell id="m1yt-KQb_Gt9kjzcw-hV-13" value="" style="endArrow=classic;html=1;rounded=0;fontSize=22;startSize=8;endSize=8;curved=1;exitX=0.5;exitY=1;exitDx=0;exitDy=0;entryX=0.5;entryY=0;entryDx=0;entryDy=0;" parent="1" source="m1yt-KQb_Gt9kjzcw-hV-3" target="m1yt-KQb_Gt9kjzcw-hV-7" edge="1">
          <mxGeometry width="50" height="50" relative="1" as="geometry">
            <mxPoint x="202" y="62" as="sourcePoint" />
            <mxPoint x="85" y="365" as="targetPoint" />
          </mxGeometry>
        </mxCell>
        <mxCell id="m1yt-KQb_Gt9kjzcw-hV-14" value="jegyek" style="rounded=1;whiteSpace=wrap;html=1;fontSize=22;" parent="1" vertex="1">
          <mxGeometry x="507" y="234" width="120" height="60" as="geometry" />
        </mxCell>
        <mxCell id="m1yt-KQb_Gt9kjzcw-hV-15" value="órarend" style="rounded=1;whiteSpace=wrap;html=1;fontSize=22;" parent="1" vertex="1">
          <mxGeometry x="431" y="140" width="120" height="60" as="geometry" />
        </mxCell>
        <mxCell id="m1yt-KQb_Gt9kjzcw-hV-16" value="hiányzások" style="rounded=1;whiteSpace=wrap;html=1;fontSize=22;" parent="1" vertex="1">
          <mxGeometry x="452" y="318" width="120" height="60" as="geometry" />
        </mxCell>
        <mxCell id="m1yt-KQb_Gt9kjzcw-hV-17" value="jogosultságok" style="rounded=1;whiteSpace=wrap;html=1;fontSize=22;" parent="1" vertex="1">
          <mxGeometry x="-284" y="354" width="120" height="60" as="geometry" />
        </mxCell>
        <mxCell id="m1yt-KQb_Gt9kjzcw-hV-18" value="" style="endArrow=classic;html=1;rounded=0;fontSize=22;startSize=8;endSize=8;curved=1;exitX=0.25;exitY=1;exitDx=0;exitDy=0;entryX=0.5;entryY=0;entryDx=0;entryDy=0;" parent="1" source="m1yt-KQb_Gt9kjzcw-hV-7" target="m1yt-KQb_Gt9kjzcw-hV-17" edge="1">
          <mxGeometry width="50" height="50" relative="1" as="geometry">
            <mxPoint x="224" y="333" as="sourcePoint" />
            <mxPoint x="274" y="283" as="targetPoint" />
          </mxGeometry>
        </mxCell>
        <mxCell id="m1yt-KQb_Gt9kjzcw-hV-19" value="" style="endArrow=classic;html=1;rounded=0;fontSize=22;startSize=8;endSize=8;curved=1;exitX=1;exitY=0.5;exitDx=0;exitDy=0;entryX=0;entryY=0.5;entryDx=0;entryDy=0;" parent="1" source="m1yt-KQb_Gt9kjzcw-hV-6" target="m1yt-KQb_Gt9kjzcw-hV-15" edge="1">
          <mxGeometry width="50" height="50" relative="1" as="geometry">
            <mxPoint x="432" y="124" as="sourcePoint" />
            <mxPoint x="482" y="74" as="targetPoint" />
          </mxGeometry>
        </mxCell>
        <mxCell id="m1yt-KQb_Gt9kjzcw-hV-20" value="" style="endArrow=classic;html=1;rounded=0;fontSize=22;startSize=8;endSize=8;curved=1;entryX=0;entryY=0.5;entryDx=0;entryDy=0;exitX=1;exitY=0.5;exitDx=0;exitDy=0;" parent="1" source="m1yt-KQb_Gt9kjzcw-hV-6" target="m1yt-KQb_Gt9kjzcw-hV-14" edge="1">
          <mxGeometry width="50" height="50" relative="1" as="geometry">
            <mxPoint x="413" y="112" as="sourcePoint" />
            <mxPoint x="497" y="143" as="targetPoint" />
          </mxGeometry>
        </mxCell>
        <mxCell id="m1yt-KQb_Gt9kjzcw-hV-21" value="" style="endArrow=classic;html=1;rounded=0;fontSize=22;startSize=8;endSize=8;curved=1;exitX=1;exitY=0.5;exitDx=0;exitDy=0;entryX=0;entryY=0.5;entryDx=0;entryDy=0;" parent="1" source="m1yt-KQb_Gt9kjzcw-hV-6" target="m1yt-KQb_Gt9kjzcw-hV-16" edge="1">
          <mxGeometry width="50" height="50" relative="1" as="geometry">
            <mxPoint x="453" y="237" as="sourcePoint" />
            <mxPoint x="503" y="187" as="targetPoint" />
          </mxGeometry>
        </mxCell>
        <mxCell id="m1yt-KQb_Gt9kjzcw-hV-22" value="órarend" style="rounded=1;whiteSpace=wrap;html=1;fontSize=22;" parent="1" vertex="1">
          <mxGeometry x="591" y="-75" width="106" height="60" as="geometry" />
        </mxCell>
        <mxCell id="m1yt-KQb_Gt9kjzcw-hV-23" value="" style="endArrow=classic;html=1;rounded=0;fontSize=22;startSize=8;endSize=8;curved=1;exitX=1;exitY=0.5;exitDx=0;exitDy=0;entryX=0;entryY=0.5;entryDx=0;entryDy=0;" parent="1" source="m1yt-KQb_Gt9kjzcw-hV-5" target="m1yt-KQb_Gt9kjzcw-hV-22" edge="1">
          <mxGeometry width="50" height="50" relative="1" as="geometry">
            <mxPoint x="463" y="51" as="sourcePoint" />
            <mxPoint x="513" y="1" as="targetPoint" />
          </mxGeometry>
        </mxCell>
        <mxCell id="m1yt-KQb_Gt9kjzcw-hV-24" value="házi feladatok / beadandók" style="rounded=1;whiteSpace=wrap;html=1;fontSize=22;" parent="1" vertex="1">
          <mxGeometry x="441" y="-200" width="120" height="60" as="geometry" />
        </mxCell>
        <mxCell id="m1yt-KQb_Gt9kjzcw-hV-25" value="" style="endArrow=classic;html=1;rounded=0;fontSize=22;startSize=8;endSize=8;curved=1;entryX=0;entryY=0.5;entryDx=0;entryDy=0;exitX=0.575;exitY=0.05;exitDx=0;exitDy=0;exitPerimeter=0;" parent="1" source="m1yt-KQb_Gt9kjzcw-hV-5" target="m1yt-KQb_Gt9kjzcw-hV-24" edge="1">
          <mxGeometry width="50" height="50" relative="1" as="geometry">
            <mxPoint x="343" y="-23" as="sourcePoint" />
            <mxPoint x="1023" y="22" as="targetPoint" />
          </mxGeometry>
        </mxCell>
        <mxCell id="m1yt-KQb_Gt9kjzcw-hV-26" value="osztályok" style="rounded=1;whiteSpace=wrap;html=1;fontSize=22;" parent="1" vertex="1">
          <mxGeometry x="643" y="-1" width="120" height="60" as="geometry" />
        </mxCell>
        <mxCell id="m1yt-KQb_Gt9kjzcw-hV-27" value="" style="endArrow=classic;html=1;rounded=0;fontSize=22;startSize=8;endSize=8;curved=1;exitX=1;exitY=0.5;exitDx=0;exitDy=0;entryX=0;entryY=0.5;entryDx=0;entryDy=0;" parent="1" source="m1yt-KQb_Gt9kjzcw-hV-5" target="m1yt-KQb_Gt9kjzcw-hV-26" edge="1">
          <mxGeometry width="50" height="50" relative="1" as="geometry">
            <mxPoint x="475" y="73" as="sourcePoint" />
            <mxPoint x="525" y="23" as="targetPoint" />
          </mxGeometry>
        </mxCell>
        <mxCell id="m1yt-KQb_Gt9kjzcw-hV-28" value="jegyek" style="rounded=1;whiteSpace=wrap;html=1;fontSize=22;" parent="1" vertex="1">
          <mxGeometry x="851" y="5" width="120" height="60" as="geometry" />
        </mxCell>
        <mxCell id="m1yt-KQb_Gt9kjzcw-hV-29" value="hiányzások" style="rounded=1;whiteSpace=wrap;html=1;fontSize=22;" parent="1" vertex="1">
          <mxGeometry x="854" y="72" width="120" height="60" as="geometry" />
        </mxCell>
        <mxCell id="m1yt-KQb_Gt9kjzcw-hV-30" value="" style="endArrow=classic;html=1;rounded=0;fontSize=22;startSize=8;endSize=8;curved=1;entryX=0;entryY=0.5;entryDx=0;entryDy=0;" parent="1" source="m1yt-KQb_Gt9kjzcw-hV-26" target="m1yt-KQb_Gt9kjzcw-hV-28" edge="1">
          <mxGeometry width="50" height="50" relative="1" as="geometry">
            <mxPoint x="763" y="79" as="sourcePoint" />
            <mxPoint x="833.7106781186548" y="29" as="targetPoint" />
          </mxGeometry>
        </mxCell>
        <mxCell id="m1yt-KQb_Gt9kjzcw-hV-31" value="" style="endArrow=classic;html=1;rounded=0;fontSize=22;startSize=8;endSize=8;curved=1;entryX=0;entryY=0.5;entryDx=0;entryDy=0;" parent="1" source="m1yt-KQb_Gt9kjzcw-hV-26" target="m1yt-KQb_Gt9kjzcw-hV-29" edge="1">
          <mxGeometry width="50" height="50" relative="1" as="geometry">
            <mxPoint x="775" y="118" as="sourcePoint" />
            <mxPoint x="825" y="68" as="targetPoint" />
          </mxGeometry>
        </mxCell>
        <mxCell id="m1yt-KQb_Gt9kjzcw-hV-33" value="házifeladatok / beadandók" style="rounded=1;whiteSpace=wrap;html=1;fontSize=22;" parent="1" vertex="1">
          <mxGeometry x="307" y="412" width="120" height="60" as="geometry" />
        </mxCell>
        <mxCell id="m1yt-KQb_Gt9kjzcw-hV-35" value="" style="endArrow=classic;html=1;rounded=0;fontSize=22;startSize=8;endSize=8;curved=1;exitX=0.5;exitY=1;exitDx=0;exitDy=0;entryX=0.5;entryY=0;entryDx=0;entryDy=0;" parent="1" source="m1yt-KQb_Gt9kjzcw-hV-6" target="m1yt-KQb_Gt9kjzcw-hV-33" edge="1">
          <mxGeometry width="50" height="50" relative="1" as="geometry">
            <mxPoint x="332" y="403" as="sourcePoint" />
            <mxPoint x="382" y="353" as="targetPoint" />
          </mxGeometry>
        </mxCell>
        <mxCell id="m1yt-KQb_Gt9kjzcw-hV-36" value="gyerekek" style="rounded=1;whiteSpace=wrap;html=1;fontSize=22;" parent="1" vertex="1">
          <mxGeometry x="-51" y="-205" width="120" height="60" as="geometry" />
        </mxCell>
        <mxCell id="m1yt-KQb_Gt9kjzcw-hV-37" value="" style="endArrow=classic;html=1;rounded=0;fontSize=22;startSize=8;endSize=8;curved=1;entryX=0.5;entryY=1;entryDx=0;entryDy=0;exitX=0.5;exitY=0;exitDx=0;exitDy=0;" parent="1" source="m1yt-KQb_Gt9kjzcw-hV-4" target="m1yt-KQb_Gt9kjzcw-hV-36" edge="1">
          <mxGeometry width="50" height="50" relative="1" as="geometry">
            <mxPoint x="-93" y="-71" as="sourcePoint" />
            <mxPoint x="-43" y="-121" as="targetPoint" />
          </mxGeometry>
        </mxCell>
        <mxCell id="m1yt-KQb_Gt9kjzcw-hV-38" value="órarend" style="rounded=1;whiteSpace=wrap;html=1;fontSize=22;" parent="1" vertex="1">
          <mxGeometry x="-20" y="-402" width="120" height="60" as="geometry" />
        </mxCell>
        <mxCell id="m1yt-KQb_Gt9kjzcw-hV-39" value="jegyek" style="rounded=1;whiteSpace=wrap;html=1;fontSize=22;" parent="1" vertex="1">
          <mxGeometry x="111" y="-336" width="120" height="60" as="geometry" />
        </mxCell>
        <mxCell id="m1yt-KQb_Gt9kjzcw-hV-40" value="&lt;font&gt;hiányzások&lt;/font&gt;" style="rounded=1;whiteSpace=wrap;html=1;fontSize=22;" parent="1" vertex="1">
          <mxGeometry x="-197" y="-340" width="120" height="60" as="geometry" />
        </mxCell>
        <mxCell id="m1yt-KQb_Gt9kjzcw-hV-41" value="" style="endArrow=classic;html=1;rounded=0;fontSize=22;startSize=8;endSize=8;curved=1;entryX=0.5;entryY=1;entryDx=0;entryDy=0;exitX=0.5;exitY=0;exitDx=0;exitDy=0;" parent="1" source="m1yt-KQb_Gt9kjzcw-hV-36" target="m1yt-KQb_Gt9kjzcw-hV-38" edge="1">
          <mxGeometry width="50" height="50" relative="1" as="geometry">
            <mxPoint x="-93" y="-177" as="sourcePoint" />
            <mxPoint x="-43" y="-227" as="targetPoint" />
          </mxGeometry>
        </mxCell>
        <mxCell id="m1yt-KQb_Gt9kjzcw-hV-42" value="" style="endArrow=classic;html=1;rounded=0;fontSize=22;startSize=8;endSize=8;curved=1;entryX=0.5;entryY=1;entryDx=0;entryDy=0;exitX=0;exitY=0.5;exitDx=0;exitDy=0;" parent="1" source="m1yt-KQb_Gt9kjzcw-hV-36" target="m1yt-KQb_Gt9kjzcw-hV-40" edge="1">
          <mxGeometry width="50" height="50" relative="1" as="geometry">
            <mxPoint x="-148" y="-126" as="sourcePoint" />
            <mxPoint x="-98" y="-176" as="targetPoint" />
          </mxGeometry>
        </mxCell>
        <mxCell id="m1yt-KQb_Gt9kjzcw-hV-43" value="" style="endArrow=classic;html=1;rounded=0;fontSize=22;startSize=8;endSize=8;curved=1;entryX=0.5;entryY=1;entryDx=0;entryDy=0;exitX=1;exitY=0.5;exitDx=0;exitDy=0;" parent="1" source="m1yt-KQb_Gt9kjzcw-hV-36" target="m1yt-KQb_Gt9kjzcw-hV-39" edge="1">
          <mxGeometry width="50" height="50" relative="1" as="geometry">
            <mxPoint x="124" y="-167" as="sourcePoint" />
            <mxPoint x="174" y="-217" as="targetPoint" />
          </mxGeometry>
        </mxCell>
        <mxCell id="m1yt-KQb_Gt9kjzcw-hV-44" value="üzenetek" style="rounded=1;whiteSpace=wrap;html=1;fontSize=22;" parent="1" vertex="1">
          <mxGeometry x="490" y="418" width="120" height="60" as="geometry" />
        </mxCell>
        <mxCell id="m1yt-KQb_Gt9kjzcw-hV-45" value="&#xa;&lt;span style=&quot;color: rgb(0, 0, 0); font-family: Helvetica; font-style: normal; font-variant-ligatures: normal; font-variant-caps: normal; font-weight: 400; letter-spacing: normal; orphans: 2; text-align: center; text-indent: 0px; text-transform: none; widows: 2; word-spacing: 0px; -webkit-text-stroke-width: 0px; white-space: normal; background-color: rgb(255, 255, 255); text-decoration-thickness: initial; text-decoration-style: initial; text-decoration-color: initial; float: none; display: inline !important;&quot;&gt;üzenetek&lt;/span&gt;&#xa;&#xa;" style="rounded=1;whiteSpace=wrap;html=1;fontSize=22;" parent="1" vertex="1">
          <mxGeometry x="448" y="57" width="120" height="60" as="geometry" />
        </mxCell>
        <mxCell id="m1yt-KQb_Gt9kjzcw-hV-46" value="&#xa;&lt;span style=&quot;color: rgb(0, 0, 0); font-family: Helvetica; font-style: normal; font-variant-ligatures: normal; font-variant-caps: normal; font-weight: 400; letter-spacing: normal; orphans: 2; text-align: center; text-indent: 0px; text-transform: none; widows: 2; word-spacing: 0px; -webkit-text-stroke-width: 0px; white-space: normal; background-color: rgb(255, 255, 255); text-decoration-thickness: initial; text-decoration-style: initial; text-decoration-color: initial; float: none; display: inline !important;&quot;&gt;üzenetek&lt;/span&gt;&#xa;&#xa;" style="rounded=1;whiteSpace=wrap;html=1;fontSize=22;" parent="1" vertex="1">
          <mxGeometry x="174" y="-210" width="120" height="60" as="geometry" />
        </mxCell>
        <mxCell id="m1yt-KQb_Gt9kjzcw-hV-47" value="" style="endArrow=classic;html=1;rounded=0;fontSize=22;startSize=8;endSize=8;curved=1;entryX=0;entryY=0.5;entryDx=0;entryDy=0;" parent="1" target="m1yt-KQb_Gt9kjzcw-hV-46" edge="1">
          <mxGeometry width="50" height="50" relative="1" as="geometry">
            <mxPoint x="70" y="-177" as="sourcePoint" />
            <mxPoint x="120" y="-109" as="targetPoint" />
          </mxGeometry>
        </mxCell>
        <mxCell id="m1yt-KQb_Gt9kjzcw-hV-48" value="" style="endArrow=classic;html=1;rounded=0;fontSize=22;startSize=8;endSize=8;curved=1;exitX=0.925;exitY=0.933;exitDx=0;exitDy=0;exitPerimeter=0;entryX=0;entryY=0;entryDx=0;entryDy=0;" parent="1" source="m1yt-KQb_Gt9kjzcw-hV-6" target="m1yt-KQb_Gt9kjzcw-hV-44" edge="1">
          <mxGeometry width="50" height="50" relative="1" as="geometry">
            <mxPoint x="507" y="573" as="sourcePoint" />
            <mxPoint x="557" y="523" as="targetPoint" />
          </mxGeometry>
        </mxCell>
        <mxCell id="m1yt-KQb_Gt9kjzcw-hV-49" value="" style="endArrow=classic;html=1;rounded=0;fontSize=22;startSize=8;endSize=8;curved=1;exitX=0.942;exitY=0.967;exitDx=0;exitDy=0;exitPerimeter=0;entryX=0;entryY=0;entryDx=0;entryDy=0;" parent="1" source="m1yt-KQb_Gt9kjzcw-hV-5" target="m1yt-KQb_Gt9kjzcw-hV-45" edge="1">
          <mxGeometry width="50" height="50" relative="1" as="geometry">
            <mxPoint x="519" y="168" as="sourcePoint" />
            <mxPoint x="569" y="118" as="targetPoint" />
          </mxGeometry>
        </mxCell>
        <mxCell id="m1yt-KQb_Gt9kjzcw-hV-50" value="osztályok" style="rounded=1;whiteSpace=wrap;html=1;fontSize=22;" parent="1" vertex="1">
          <mxGeometry x="-131" y="373" width="120" height="60" as="geometry" />
        </mxCell>
        <mxCell id="m1yt-KQb_Gt9kjzcw-hV-51" value="tanárok&amp;nbsp;" style="rounded=1;whiteSpace=wrap;html=1;fontSize=22;" parent="1" vertex="1">
          <mxGeometry x="79" y="311" width="120" height="60" as="geometry" />
        </mxCell>
        <mxCell id="m1yt-KQb_Gt9kjzcw-hV-52" value="szülők" style="rounded=1;whiteSpace=wrap;html=1;fontSize=22;" parent="1" vertex="1">
          <mxGeometry x="1" y="390" width="120" height="60" as="geometry" />
        </mxCell>
        <mxCell id="m1yt-KQb_Gt9kjzcw-hV-53" value="" style="endArrow=classic;html=1;rounded=0;fontSize=22;startSize=8;endSize=8;curved=1;exitX=0.5;exitY=1;exitDx=0;exitDy=0;entryX=0.5;entryY=0;entryDx=0;entryDy=0;" parent="1" source="m1yt-KQb_Gt9kjzcw-hV-7" target="m1yt-KQb_Gt9kjzcw-hV-50" edge="1">
          <mxGeometry width="50" height="50" relative="1" as="geometry">
            <mxPoint x="-50" y="378" as="sourcePoint" />
            <mxPoint y="328" as="targetPoint" />
          </mxGeometry>
        </mxCell>
        <mxCell id="m1yt-KQb_Gt9kjzcw-hV-54" value="" style="endArrow=classic;html=1;rounded=0;fontSize=22;startSize=8;endSize=8;curved=1;exitX=0.892;exitY=1.017;exitDx=0;exitDy=0;exitPerimeter=0;entryX=0.5;entryY=0;entryDx=0;entryDy=0;" parent="1" source="m1yt-KQb_Gt9kjzcw-hV-7" target="m1yt-KQb_Gt9kjzcw-hV-52" edge="1">
          <mxGeometry width="50" height="50" relative="1" as="geometry">
            <mxPoint x="47" y="338" as="sourcePoint" />
            <mxPoint x="90" y="373" as="targetPoint" />
          </mxGeometry>
        </mxCell>
        <mxCell id="m1yt-KQb_Gt9kjzcw-hV-55" value="" style="endArrow=classic;html=1;rounded=0;fontSize=22;startSize=8;endSize=8;curved=1;exitX=1;exitY=1;exitDx=0;exitDy=0;" parent="1" source="m1yt-KQb_Gt9kjzcw-hV-7" target="m1yt-KQb_Gt9kjzcw-hV-51" edge="1">
          <mxGeometry width="50" height="50" relative="1" as="geometry">
            <mxPoint x="-163" y="283" as="sourcePoint" />
            <mxPoint x="-113" y="233" as="targetPoint" />
          </mxGeometry>
        </mxCell>
        <mxCell id="m1yt-KQb_Gt9kjzcw-hV-56" value="diák" style="rounded=1;whiteSpace=wrap;html=1;fontSize=22;" parent="1" vertex="1">
          <mxGeometry x="-129" y="488" width="120" height="60" as="geometry" />
        </mxCell>
        <mxCell id="m1yt-KQb_Gt9kjzcw-hV-57" value="" style="endArrow=classic;html=1;rounded=0;fontSize=22;startSize=8;endSize=8;curved=1;exitX=0.558;exitY=1;exitDx=0;exitDy=0;exitPerimeter=0;" parent="1" source="m1yt-KQb_Gt9kjzcw-hV-50" target="m1yt-KQb_Gt9kjzcw-hV-56" edge="1">
          <mxGeometry width="50" height="50" relative="1" as="geometry">
            <mxPoint x="-170" y="538" as="sourcePoint" />
            <mxPoint x="-120" y="488" as="targetPoint" />
          </mxGeometry>
        </mxCell>
      </root>
    </mxGraphModel>
  </diagram>
</mxfile>
